<svg xmlns="http://www.w3.org/2000/svg" width="32" height="32" viewBox="0 0 16 16" shape-rendering="crispEdges">
  <rect width="16" height="16" rx="3" fill="#0d0f14"/>
  <g fill="#4ee36b">
    <!-- rungs -->
    <rect x="6" y="2" width="4" height="1"/><rect x="6" y="7" width="4" height="1"/><rect x="6" y="12" width="4" height="1"/>
    <!-- left strand -->
    <rect x="5" y="2" width="1" height="1"/><rect x="6" y="3" width="1" height="1"/><rect x="7" y="4" width="1" height="1"/><rect x="7" y="5" width="1" height="1"/>
    <rect x="6" y="6" width="1" height="1"/><rect x="5" y="7" width="1" height="1"/><rect x="5" y="8" width="1" height="1"/><rect x="6" y="9" width="1" height="1"/>
    <rect x="7" y="10" width="1" height="1"/><rect x="7" y="11" width="1" height="1"/><rect x="6" y="12" width="1" height="1"/><rect x="5" y="13" width="1" height="1"/>
    <!-- right strand -->
    <rect x="10" y="2" width="1" height="1"/><rect x="9" y="3" width="1" height="1"/><rect x="8" y="4" width="1" height="1"/><rect x="8" y="5" width="1" height="1"/>
    <rect x="9" y="6" width="1" height="1"/><rect x="10" y="7" width="1" height="1"/><rect x="10" y="8" width="1" height="1"/><rect x="9" y="9" width="1" height="1"/>
    <rect x="8" y="10" width="1" height="1"/><rect x="8" y="11" width="1" height="1"/><rect x="9" y="12" width="1" height="1"/><rect x="10" y="13" width="1" height="1"/>
  </g>
</svg>
